# Blender v3.0.1 OBJ File: 'bow_frame.blend'
# www.blender.org
mtllib bow_frame.mtl
o Cube_Cube.001
v 0.014446 -0.513525 -0.106263
v -0.014446 -0.513525 -0.106263
v -0.014446 0.513525 -0.106263
v 0.015997 -0.568659 -0.207508
v 0.015997 0.568659 -0.207508
v -0.015997 0.568659 -0.207508
v -0.015997 -0.568659 -0.207508
v 0.015997 0.442291 -0.036279
v 0.015997 0.315922 0.006768
v 0.015997 0.189553 0.021421
v 0.015997 0.063184 0.021421
v 0.015997 -0.063184 0.021421
v 0.015997 -0.189553 0.021421
v 0.015997 -0.315922 0.006768
v 0.015997 -0.442291 -0.036279
v -0.015997 0.442291 -0.036279
v -0.015997 0.315922 0.006768
v -0.015997 0.189553 0.021421
v -0.015997 0.063184 0.021421
v -0.015997 -0.063184 0.021421
v -0.015997 -0.189553 0.021421
v -0.015997 -0.315922 0.006768
v -0.015997 -0.442291 -0.036279
v 0.015997 -0.474652 -0.114526
v 0.015997 -0.328152 -0.030656
v 0.015997 -0.189553 -0.018551
v 0.015997 -0.063184 -0.013033
v 0.015997 0.063184 -0.013033
v 0.015997 0.189553 -0.018551
v 0.015997 0.328152 -0.030656
v 0.015997 0.474652 -0.114526
v -0.015997 0.474652 -0.114526
v -0.015997 0.328152 -0.030656
v -0.015997 0.189553 -0.018551
v -0.015997 0.063184 -0.013033
v -0.015997 -0.063184 -0.013033
v -0.015997 -0.189553 -0.018551
v -0.015997 -0.328152 -0.030656
v -0.015997 -0.474652 -0.114526
v 0.014446 0.513525 -0.106263
v 0.015997 0.530501 -0.207508
v -0.015997 -0.530501 -0.207508
v 0.015997 -0.530501 -0.207508
v -0.015997 0.530501 -0.207508
v 0.015997 -0.401402 -0.057865
v 0.015997 0.401402 -0.057865
v -0.015997 0.401402 -0.057865
v -0.015997 -0.401402 -0.057865
v -0.015997 0.018618 0.021421
v -0.015997 -0.018618 0.021421
v -0.015997 0.018618 -0.013033
v -0.015997 -0.018618 -0.013033
v -0.007681 0.011058 0.021421
v -0.007681 -0.011058 0.021421
v -0.007681 0.011058 -0.013033
v -0.007681 -0.011058 -0.013033
vt 0.064274 0.786442
vt 0.000103 0.999897
vt 0.003372 0.786442
vt 0.000103 0.638816
vt 0.067543 0.638816
vt 0.000103 0.000103
vt 0.064274 0.213558
vt 0.003372 0.213558
vt 0.213108 0.375179
vt 0.225384 0.569991
vt 0.207087 0.358321
vt 0.228979 0.158542
vt 0.232009 0.091102
vt 0.232009 0.158542
vt 0.420610 0.081361
vt 0.615733 0.087661
vt 0.403254 0.085753
vt 0.615733 0.000103
vt 0.615721 0.003510
vt 0.420616 0.006340
vt 0.244655 0.017890
vt 0.166143 0.018844
vt 0.256451 0.008872
vt 0.219258 0.028839
vt 0.135400 0.028825
vt 0.207681 0.038823
vt 0.135398 0.038812
vt 0.135397 0.048799
vt 0.207679 0.048810
vt 0.135395 0.058785
vt 0.219253 0.058798
vt 0.166135 0.068777
vt 0.244647 0.069756
vt 0.301727 0.075553
vt 0.256441 0.078777
vt 0.135189 0.196146
vt 0.067749 0.000103
vt 0.135189 0.000103
vt 0.135190 0.373368
vt 0.067749 0.315721
vt 0.135190 0.315721
vt 0.135190 0.401155
vt 0.067749 0.373368
vt 0.135190 0.416516
vt 0.067750 0.401155
vt 0.067750 0.416516
vt 0.117661 0.420655
vt 0.117661 0.422411
vt 0.135190 0.441911
vt 0.067750 0.426550
vt 0.135190 0.426550
vt 0.135190 0.469699
vt 0.067750 0.441911
vt 0.135189 0.646920
vt 0.067749 0.527345
vt 0.135190 0.527345
vt 0.169097 0.574855
vt 0.165705 0.574468
vt 0.184340 0.379876
vt 0.192187 0.203387
vt 0.199870 0.125102
vt 0.199870 0.216126
vt 0.184077 0.176894
vt 0.193311 0.093391
vt 0.175407 0.164267
vt 0.183367 0.092291
vt 0.228774 0.159813
vt 0.218409 0.088201
vt 0.221915 0.087867
vt 0.225268 0.160147
vt 0.208469 0.089148
vt 0.216427 0.172617
vt 0.201446 0.120695
vt 0.207934 0.198933
vt 0.207589 0.256298
vt 0.200076 0.211530
vt 0.067543 0.361184
vt 0.067543 0.452473
vt 0.000103 0.361184
vt 0.067543 0.484949
vt 0.000103 0.452473
vt 0.067543 0.494983
vt 0.000103 0.484949
vt 0.067543 0.505017
vt 0.017632 0.500878
vt 0.017632 0.499122
vt 0.067543 0.515051
vt 0.000103 0.505017
vt 0.067543 0.547527
vt 0.000103 0.515051
vt 0.000103 0.547527
vt 0.228979 0.087867
vt 0.296420 0.090896
vt 0.228979 0.090896
vt 0.135189 0.842964
vt 0.067749 0.646920
vt 0.067749 0.469699
vt 0.067749 0.196146
vt 0.179860 0.091903
vt 0.171900 0.163880
vt 0.162477 0.089981
vt 0.154518 0.161957
vt 0.160737 0.089789
vt 0.143354 0.087867
vt 0.152778 0.161765
vt 0.135395 0.159843
vt 0.067543 0.999897
vt 0.067543 0.000103
vt 0.228774 0.569648
vt 0.228979 0.091102
vt 0.615713 0.084253
vt 0.403262 0.001943
vt 0.301737 0.012110
vt 0.135190 0.420055
vt 0.135190 0.423011
vt 0.190627 0.363078
vt 0.191666 0.260864
vt 0.000103 0.494983
vt 0.000103 0.501478
vt 0.000103 0.498522
vt 0.296420 0.087867
vt 0.067749 0.842964
vn 0.0000 0.8782 0.4782
vn 0.0000 0.7008 0.7133
vn 0.0000 -0.8782 0.4782
vn -0.9989 -0.0328 0.0332
vn 0.0000 0.0000 -1.0000
vn 0.9989 0.0328 0.0332
vn 1.0000 0.0000 0.0000
vn 0.0000 0.8573 -0.5149
vn 0.0000 0.3482 -0.9374
vn 0.0000 0.0870 -0.9962
vn 0.0000 0.0436 -0.9990
vn 0.0000 -0.0436 -0.9990
vn 0.0000 -0.0870 -0.9962
vn 0.0000 -0.6118 -0.7910
vn -1.0000 0.0000 0.0000
vn 0.0000 -0.7008 0.7133
vn 0.0000 -0.3224 0.9466
vn 0.0000 -0.1152 0.9933
vn 0.0000 0.0000 1.0000
vn 0.0000 0.1152 0.9933
vn 0.0000 0.3224 0.9466
vn 0.0000 -0.8573 -0.5149
vn 0.0000 -0.3482 -0.9374
vn 0.0000 0.6118 -0.7910
vn -0.6726 -0.7400 0.0000
vn -0.6726 0.7400 0.0000
vn -0.9992 -0.0366 0.0152
vn 0.9992 0.0366 0.0152
vn 0.9992 -0.0366 0.0152
vn 0.9989 -0.0328 0.0332
vn -0.9992 0.0366 0.0152
vn -0.9989 0.0328 0.0332
usemtl None
s off
f 40/1/1 6/2/1 3/3/1
f 40/1/2 16/4/2 8/5/2
f 7/6/3 1/7/3 2/8/3
f 39/9/4 7/10/4 2/11/4
f 6/12/5 41/13/5 44/14/5
f 31/15/6 5/16/6 40/17/6
f 4/18/7 43/19/7 24/20/7
f 25/21/7 14/22/7 15/23/7
f 14/22/7 26/24/7 13/25/7
f 13/25/7 27/26/7 12/27/7
f 27/26/7 11/28/7 12/27/7
f 28/29/7 10/30/7 11/28/7
f 29/31/7 9/32/7 10/30/7
f 30/33/7 46/34/7 8/35/7
f 39/36/8 43/37/8 42/38/8
f 38/39/9 45/40/9 48/41/9
f 37/42/10 25/43/10 38/39/10
f 36/44/11 26/45/11 37/42/11
f 27/46/5 56/47/5 55/48/5
f 34/49/12 28/50/12 35/51/12
f 33/52/13 29/53/13 34/49/13
f 32/54/14 46/55/14 47/56/14
f 6/57/15 44/58/15 32/59/15
f 33/60/15 17/61/15 16/62/15
f 17/61/15 34/63/15 18/64/15
f 18/64/15 35/65/15 19/66/15
f 52/67/15 20/68/15 50/69/15
f 36/70/15 21/71/15 20/68/15
f 37/72/15 22/73/15 21/71/15
f 38/74/15 48/75/15 23/76/15
f 15/77/16 2/8/16 1/7/16
f 14/78/17 23/79/17 15/77/17
f 13/80/18 22/81/18 14/78/18
f 12/82/19 21/83/19 13/80/19
f 11/84/19 53/85/19 54/86/19
f 10/87/19 19/88/19 11/84/19
f 9/89/20 18/90/20 10/87/20
f 8/5/21 17/91/21 9/89/21
f 42/92/5 4/93/5 7/94/5
f 44/95/22 31/96/22 32/54/22
f 47/56/23 30/97/23 33/52/23
f 48/41/24 24/98/24 39/36/24
f 35/65/15 49/99/15 19/66/15
f 51/100/25 53/101/25 49/99/25
f 55/102/15 54/103/15 53/101/15
f 50/104/26 56/105/26 52/106/26
f 40/1/1 5/107/1 6/2/1
f 40/1/2 3/3/2 16/4/2
f 7/6/3 4/108/3 1/7/3
f 2/11/27 23/76/27 39/9/27
f 39/9/15 42/109/15 7/10/15
f 6/12/5 5/110/5 41/13/5
f 40/17/28 8/35/28 31/15/28
f 31/15/7 41/111/7 5/16/7
f 15/23/29 1/112/29 24/20/29
f 1/112/30 4/18/30 24/20/30
f 15/23/7 24/20/7 45/113/7
f 45/113/7 25/21/7 15/23/7
f 14/22/7 25/21/7 26/24/7
f 13/25/7 26/24/7 27/26/7
f 27/26/7 28/29/7 11/28/7
f 28/29/7 29/31/7 10/30/7
f 29/31/7 30/33/7 9/32/7
f 8/35/7 9/32/7 30/33/7
f 46/34/7 31/15/7 8/35/7
f 39/36/8 24/98/8 43/37/8
f 38/39/9 25/43/9 45/40/9
f 37/42/10 26/45/10 25/43/10
f 36/44/11 27/46/11 26/45/11
f 27/46/5 36/44/5 56/47/5
f 36/44/5 52/114/5 56/47/5
f 35/51/5 28/50/5 55/48/5
f 28/50/5 27/46/5 55/48/5
f 55/48/5 51/115/5 35/51/5
f 34/49/12 29/53/12 28/50/12
f 33/52/13 30/97/13 29/53/13
f 32/54/14 31/96/14 46/55/14
f 16/62/31 3/116/31 32/59/31
f 3/116/32 6/57/32 32/59/32
f 16/62/15 32/59/15 47/117/15
f 47/117/15 33/60/15 16/62/15
f 17/61/15 33/60/15 34/63/15
f 18/64/15 34/63/15 35/65/15
f 52/67/15 36/70/15 20/68/15
f 36/70/15 37/72/15 21/71/15
f 37/72/15 38/74/15 22/73/15
f 23/76/15 22/73/15 38/74/15
f 48/75/15 39/9/15 23/76/15
f 15/77/16 23/79/16 2/8/16
f 14/78/17 22/81/17 23/79/17
f 13/80/18 21/83/18 22/81/18
f 12/82/19 20/118/19 21/83/19
f 20/118/19 12/82/19 54/86/19
f 12/82/19 11/84/19 54/86/19
f 11/84/19 19/88/19 53/85/19
f 19/88/19 49/119/19 53/85/19
f 54/86/19 50/120/19 20/118/19
f 10/87/19 18/90/19 19/88/19
f 9/89/20 17/91/20 18/90/20
f 8/5/21 16/4/21 17/91/21
f 42/92/5 43/121/5 4/93/5
f 44/95/22 41/122/22 31/96/22
f 47/56/23 46/55/23 30/97/23
f 48/41/24 45/40/24 24/98/24
f 35/65/15 51/100/15 49/99/15
f 51/100/25 55/102/25 53/101/25
f 55/102/15 56/105/15 54/103/15
f 50/104/26 54/103/26 56/105/26
